<svg width="197" height="60" viewBox="0 0 197 60" fill="none" xmlns="http://www.w3.org/2000/svg">
<g clip-path="url(#clip0_9_15002)">
<path d="M2.41016 22.1038L1.64596 26.9639H9.37611C3.29193 32.4721 0 41.0436 0 46.5812C0 50.6755 1.29326 53.8567 3.90916 56.0364C5.99601 57.8037 8.87645 58.7757 12.4623 59.0114L12.815 59.0408V57.3324L12.5505 57.2735C9.28794 56.5371 3.85038 54.3574 3.79159 47.7299C3.7622 42.7814 8.84705 33.5324 14.7255 29.6443L13.1677 38.6282H18.135L20.9272 22.1332L2.41016 22.1038Z" fill="#0096FF"/>
<path d="M7.23033 0.188843C4.67321 0.188843 2.58636 2.28018 2.55697 4.81334L2.38062 17.8326L5.05531 17.8621H7.7006L7.84757 5.52027H29.7154L29.8623 38.9521H22.867L21.9558 44.2836H30.509C33.0661 44.2836 35.1823 41.9566 35.2117 39.394L35.1235 0.188843H7.23033Z" fill="#0096FF"/>
<path d="M81.5048 34.6519C81.5048 36.3309 80.9758 37.6269 79.9176 38.54C78.8301 39.4826 77.5957 39.9539 76.0673 39.9539C74.8916 39.9539 73.9216 39.6888 73.1868 39.1291C72.452 38.5695 71.8936 37.8331 71.5703 36.92C71.2176 35.9774 71.0412 34.917 71.0412 33.7682V20.2188H65.6331V35.0348C65.6331 38.0687 66.4266 40.4841 68.0138 42.1925C69.601 43.9303 71.6878 44.814 74.2156 44.814C76.1261 44.814 77.772 44.3722 79.1534 43.4885C80.0646 42.8994 80.8582 42.2219 81.4754 41.515V44.3722H86.8836V20.2188H81.4754V34.6519H81.5048Z" fill="#003C46"/>
<path d="M102.784 19.7179C101.256 19.7179 99.7864 20.2186 98.405 21.1612C97.4938 21.7798 96.7296 22.5456 96.1418 23.4293V20.2186H90.6748V44.3721H96.1418V31.0877C96.1418 29.9389 96.4357 28.9374 96.9647 28.1127C97.5232 27.2879 98.2286 26.6105 99.081 26.1686C100.345 25.4912 101.726 25.3439 102.931 25.6384C103.343 25.7268 103.666 25.8446 103.931 25.9919L104.401 26.2275L105.812 20.3954L105.518 20.2481C104.842 19.8652 103.96 19.7179 102.784 19.7179Z" fill="#003C46"/>
<path d="M126.357 21.0729C125.122 20.1598 123.418 19.6885 121.243 19.6885C119.509 19.6885 117.921 20.1303 116.511 21.014C115.541 21.6031 114.718 22.2806 114.071 23.0169V20.1598H108.663V44.3132H114.042V29.7917C114.042 28.8786 114.277 28.0244 114.776 27.2585C115.276 26.4927 115.952 25.8741 116.804 25.4028C117.657 24.9315 118.627 24.6959 119.773 24.6959C120.949 24.6075 121.831 24.7843 122.477 25.2555C123.124 25.6974 123.565 26.3159 123.829 27.1407C124.123 27.9949 124.241 28.9375 124.241 30.0273V44.3426H129.619V29.7328C129.619 27.936 129.384 26.257 128.914 24.7548C128.444 23.2231 127.591 21.986 126.357 21.0729Z" fill="#003C46"/>
<path d="M138.79 20.2188H133.382V44.3722H138.79V20.2188Z" fill="#003C46"/>
<path d="M167.154 20.2188H161.746V44.3722H167.154V20.2188Z" fill="#003C46"/>
<path d="M191.226 24.7548C190.756 23.2231 189.874 21.986 188.669 21.0729C187.434 20.1598 185.729 19.6885 183.554 19.6885C181.82 19.6885 180.233 20.1303 178.822 21.014C177.852 21.6031 177.029 22.2806 176.383 23.0169V20.1598H170.975V44.3132H176.353V29.7917C176.353 28.8786 176.589 28.0244 177.088 27.2585C177.588 26.4927 178.264 25.8741 179.116 25.4028C179.969 24.9315 180.939 24.6959 182.085 24.6959C183.231 24.6075 184.142 24.7843 184.789 25.2555C185.436 25.6974 185.876 26.3159 186.141 27.1407C186.435 27.9949 186.552 28.9375 186.552 30.0273V44.3426H191.931V29.7328C191.931 27.9065 191.696 26.257 191.226 24.7548Z" fill="#003C46"/>
<path d="M56.8447 14.2688H51.4365V20.2188H46.6162V25.5208H51.4365V36.9495V37.9804L51.4659 37.9509C51.7305 42.5754 53.8173 44.3722 58.6964 44.3722C60.2836 44.3722 61.1653 44.2839 61.1947 44.2839L61.5768 44.2544V39.2764L61.1066 39.3059C61.1066 39.3059 60.0778 39.3943 59.637 39.3943C57.315 39.3943 56.8447 38.8641 56.8447 36.2131V25.4913H62.2529V20.1893H56.8447V14.2688Z" fill="#003C46"/>
<path d="M152.369 14.2688H146.961V20.2188H142.141V25.5208H146.961V36.9495V37.9804L146.991 37.9509C147.255 42.5754 149.342 44.3722 154.221 44.3722C155.808 44.3722 156.69 44.2839 156.719 44.2839L157.102 44.2544V39.2764L156.631 39.3059C156.631 39.3059 155.603 39.3943 155.162 39.3943C152.84 39.3943 152.369 38.8641 152.369 36.2131V25.4913H157.778V20.1893H152.369V14.2688Z" fill="#003C46"/>
<path d="M136.086 16.1834C137.612 16.1834 138.849 14.9437 138.849 13.4146C138.849 11.8854 137.612 10.6458 136.086 10.6458C134.56 10.6458 133.323 11.8854 133.323 13.4146C133.323 14.9437 134.56 16.1834 136.086 16.1834Z" fill="#003C46"/>
<path d="M164.45 16.1834C165.976 16.1834 167.213 14.9437 167.213 13.4146C167.213 11.8854 165.976 10.6458 164.45 10.6458C162.924 10.6458 161.687 11.8854 161.687 13.4146C161.687 14.9437 162.924 16.1834 164.45 16.1834Z" fill="#003C46"/>
<path d="M191.961 15.0052H191.461V12.4426H190.609V12.0007H192.872V12.4426H191.99L191.961 15.0052ZM194.459 15.0052L193.636 12.6782H193.607L193.636 13.2084V15.0052H193.136V12.0007H193.901L194.724 14.3277L195.576 12.0007H196.311V15.0052H195.782V13.2673L195.811 12.7077H195.782L194.9 15.0346L194.459 15.0052Z" fill="#003C46"/>
</g>
<defs>
<clipPath id="clip0_9_15002">
<rect width="196.369" height="58.9108" fill="white" transform="translate(0 0.189453)"/>
</clipPath>
</defs>
</svg>
